<?xml version="1.0" encoding="UTF-8" standalone="no"?>
<svg
   xmlns:dc="http://purl.org/dc/elements/1.1/"
   xmlns:cc="http://creativecommons.org/ns#"
   xmlns:rdf="http://www.w3.org/1999/02/22-rdf-syntax-ns#"
   xmlns:svg="http://www.w3.org/2000/svg"
   xmlns="http://www.w3.org/2000/svg"
   xmlns:sodipodi="http://sodipodi.sourceforge.net/DTD/sodipodi-0.dtd"
   xmlns:inkscape="http://www.inkscape.org/namespaces/inkscape"
   version="1.1"
   id="svg2"
   inkscape:version="1.0.2 (e86c870879, 2021-01-15, custom)"
   sodipodi:docname="car-cutout.svg"
   x="0px"
   y="0px"
   viewBox="0 0 841.8897705 595.2755737"
   style="enable-background:new 0 0 841.8897705 595.2755737;"
   xml:space="preserve"><metadata
   id="metadata246"><rdf:RDF><cc:Work
       rdf:about=""><dc:format>image/svg+xml</dc:format><dc:type
         rdf:resource="http://purl.org/dc/dcmitype/StillImage" /></cc:Work></rdf:RDF></metadata><defs
   id="defs244">
		
		
		
		
		
		
		
		
		
		
		
		
		
		
		
		
		
		
		
		
		
			
	
		
			
		
		
		
		
		
		
		
		
		
		
		
		
		
	</defs>
<style
   type="text/css"
   id="style129">
	.st0{fill:none;stroke:#000000;stroke-width:2;}
	.st1{fill:none;stroke:#000000;stroke-width:2;stroke-miterlimit:10;}
</style>
<sodipodi:namedview
   bordercolor="#666666"
   borderopacity="1.0"
   fit-margin-bottom="0"
   fit-margin-left="0"
   fit-margin-right="0"
   fit-margin-top="0"
   id="base"
   inkscape:current-layer="layer2"
   inkscape:cx="445.25422"
   inkscape:cy="304.50551"
   inkscape:document-units="px"
   inkscape:guide-bbox="true"
   inkscape:pageopacity="0.0"
   inkscape:pageshadow="2"
   inkscape:snap-global="false"
   inkscape:window-height="1033"
   inkscape:window-maximized="1"
   inkscape:window-width="1920"
   inkscape:window-x="-3"
   inkscape:window-y="-3"
   inkscape:zoom="1.0047021"
   pagecolor="#ffffff"
   showgrid="false"
   showguides="true"
   inkscape:document-rotation="0">
	</sodipodi:namedview>
<g
   id="layer2"
   transform="translate(254 -254)"
   inkscape:groupmode="layer"
   inkscape:label="auto">
	<g
   id="g4113"
   transform="translate(-13.78,43.524)">
		<path
   id="path3070"
   inkscape:connector-curvature="0"
   sodipodi:nodetypes="csssscccsssscsccscccsscccssc"
   class="st0"
   d="m 131.77817,635.16089 c 20.44371,-7.75708 69.08323,-5.64014 94.46145,-6.34577 25.37821,-0.70568 79.19898,5.04798 99.38117,13.39228 20.2315,8.35412 66.5173,33.38696 74.75793,35.95288 11.25071,3.52325 20.4289,3.52325 39.47611,9.86902 18.99789,6.34576 12.6817,16.21478 12.6817,16.21478 l -14.80356,-2.11688 -2.86203,26.11346 c 0,0 18.35636,0.67603 20.47824,7.72254 2.12186,7.05139 2.81265,15.50915 -1.43103,20.44366 -4.19433,4.94934 -7.05636,-0.70563 -9.12884,6.33099 -2.12189,7.0564 -1.43103,14.11274 -13.42188,13.42188 -11.9909,-0.74017 -48.65433,0 -48.65433,0 0,0 -7.74716,-53.58881 -48.60498,-52.17755 -40.90713,1.40631 -47.22329,52.17755 -47.22329,52.17755 H 40.139259 c 0,0 -2.822529,-51.47192 -47.9388234,-52.17755 -45.1113546,-0.70563 -48.6395306,52.17755 -48.6395306,52.17755 H -88.8638 l -9.163399,-19.04718 c -0.256591,0 -12.953101,0 -10.574661,-8.45783 2.29454,-8.1715 -2.11691,-20.44366 8.45776,-20.44366 10.57468,0 23.261326,0.70563 23.261326,0.70563 l 7.757057,-21.85498 -20.443695,-1.41126 c 0,0 16.920456,-11.98102 58.50856,-16.20984 41.593041,-4.22888 77.540985,-4.22888 95.167091,-15.50921 17.62117,-11.28028 67.671961,-38.77051 67.671961,-38.77051 z" />
		<path
   id="path3846"
   inkscape:connector-curvature="0"
   class="st0"
   d="m -98.027199,757.11255 h 45.816986" />
		<path
   id="path3850"
   inkscape:connector-curvature="0"
   class="st0"
   d="M 36.611099,757.11255 H 291.81937" />
		<path
   id="path3852"
   inkscape:connector-curvature="0"
   class="st0"
   d="m 377.08777,757.11255 h 74.70859" />
		<path
   id="path3884"
   inkscape:connector-curvature="0"
   sodipodi:nodetypes="csccc"
   class="st0"
   d="m 67.629463,681.68353 c 7.757042,-9.16345 60.882057,-40.22619 74.723377,-43.70501 14.55683,-3.6565 50.82552,-3.52326 50.82552,-3.52326 l -3.52325,47.22827 z" />
		<path
   id="path3888"
   inkscape:connector-curvature="0"
   class="st0"
   d="m 87.367523,666.87994 v 14.09797" />
		<path
   id="path3892"
   inkscape:connector-curvature="0"
   sodipodi:nodetypes="ccccc"
   class="st0"
   d="m 205.86008,635.151 -2.1169,46.54236 h 102.23827 c -5.57602,-10.23908 -22.99485,-36.95953 -35.97263,-43.70496 -7.05637,-4.93457 -40.88741,-2.13665 -64.14871,-2.8374 z" />
		<path
   id="path3896"
   inkscape:connector-curvature="0"
   sodipodi:nodetypes="cscsc"
   class="st0"
   d="m 288.26645,638.68414 c 0,0 39.47613,41.59302 42.28879,42.99939 2.81265,1.41126 57.09234,0.70563 57.09234,0.70563 0,0 -38.0451,-23.26135 -50.72686,-28.90149 -12.68174,-5.64014 -44.41065,-15.50915 -48.65433,-14.80353 z" />
		<path
   id="path3900"
   inkscape:connector-curvature="0"
   sodipodi:nodetypes="csc"
   class="st0"
   d="m 58.288425,677.00555 c -6.947807,15.28223 -9.030159,35.42493 -9.030159,46.53742 0,11.11255 2.082352,45.16565 11.112542,52.07397" />
		<path
   id="path3900-6"
   inkscape:connector-curvature="0"
   sodipodi:nodetypes="cccc"
   class="st0"
   d="m 199.97813,628.3858 c -0.69084,2.77814 -1.99353,40.39887 -3.21237,52.78449 -1.81096,9.22754 -2.45738,25.26471 -3.03474,43.07837 0,11.10266 3.46898,39.57477 6.24708,52.05914" />
		<path
   id="path3920"
   inkscape:connector-curvature="0"
   class="st0"
   d="m -61.18116,756.18976 c 0,0 7.638638,-42.37268 52.789463,-42.37268 45.145885,0 54.176045,43.06354 54.176045,43.06354" />
		<path
   id="path3920-5"
   inkscape:connector-curvature="0"
   class="st0"
   d="m 282.6362,756.86578 c 0,0 7.63861,-42.33813 52.78943,-42.33813 45.1459,0 54.1958,43.02893 54.1958,43.02893" />
		<path
   id="path3940"
   inkscape:connector-curvature="0"
   sodipodi:nodetypes="cc"
   class="st0"
   d="M -77.849953,729.09924 H -46.59473" />
		<path
   id="path3942"
   inkscape:connector-curvature="0"
   sodipodi:nodetypes="cssc"
   class="st0"
   d="m 272.22928,631.85968 c 9.03018,6.25201 27.78137,25.00317 45.84167,51.39789 18.06034,26.39477 4.14502,29.17291 -9.03018,36.81152 -13.22455,7.64356 -24.32721,20.83844 -33.35733,55.54779" />
		<path
   id="path3944"
   inkscape:connector-curvature="0"
   sodipodi:nodetypes="cc"
   class="st0"
   d="M 436.84479,728.49231 H 372.93292" />
		<path
   id="path3946"
   inkscape:connector-curvature="0"
   class="st0"
   d="M 29.115566,728.4035 H 297.93817" />
		<path
   id="path3948"
   inkscape:connector-curvature="0"
   class="st0"
   d="m 286.7861,654.08478 v 27.09051" />
		<path
   id="rect3950"
   class="st0"
   d="m 164.8459,703.27698 h 17.47797 c 0.79936,0 1.44734,1.6062 1.44734,3.58764 v 0 c 0,1.98139 -0.64798,3.58765 -1.44734,3.58765 H 164.8459 c -0.79935,0 -1.44734,-1.60626 -1.44734,-3.58765 v 0 c 0,-1.98144 0.64799,-3.58764 1.44734,-3.58764 z" />
		<path
   id="rect3950-4"
   class="st0"
   d="m 291.9541,703.27698 h 17.47797 c 0.79934,0 1.44732,1.6062 1.44732,3.58764 v 0 c 0,1.98139 -0.64798,3.58765 -1.44732,3.58765 H 291.9541 c -0.79935,0 -1.44736,-1.60626 -1.44736,-3.58765 v 0 c 0,-1.98144 0.64801,-3.58764 1.44736,-3.58764 z" />
		<path
   id="rect4014"
   class="st0"
   d="m 16.601715,703.96777 h 7.656212 c 0.444269,0 0.804419,1.2967 0.804419,2.89612 v 0 c 0,1.59943 -0.36015,2.89606 -0.804419,2.89606 h -7.656212 c -0.444269,0 -0.804417,-1.29663 -0.804417,-2.89606 v 0 c 0,-1.59942 0.360148,-2.89612 0.804417,-2.89612 z" />
	</g>
	
	<path
   id="path4245"
   inkscape:connector-curvature="0"
   sodipodi:nodetypes="ccsccsccccc"
   class="st0"
   d="M-171.9441376,505.7174377   l0.6957703-45.1508484c0,0,2.7761536-11.8082886-12.5040741-12.499115   c-15.282196-0.6957703-13.1998291,1.3865967-13.1998291,1.3865967l0.6957703,204.881134h13.8906555   c13.893631,0,11.1174774-11.1026611,11.1174774-11.1026611v-47.2233276c-6.2569733,0-5.561203-4.7420654-5.561203-8.3344116   v-73.6229858c0.2220459-9.3213196,4.8654327-8.3344116,4.8654327-8.3344116V505.7174377z" />
	<path
   id="path4247"
   inkscape:connector-curvature="0"
   class="st0"
   d="M-196.2219696,458.9579468h24.3123627" />
	<path
   id="path4247-2"
   inkscape:connector-curvature="0"
   class="st0"
   d="M-195.802536,643.6273193h24.3123779" />
	<path
   id="path4247-1"
   inkscape:connector-curvature="0"
   class="st0"
   d="M-196.5673828,488.0222473h24.3074341" />
	<path
   id="path4247-0"
   inkscape:connector-curvature="0"
   class="st0"
   d="M-195.1807861,616.2259521h24.3123627" />
	<path
   id="path4281-1"
   inkscape:connector-curvature="0"
   class="st0"
   d="M-191.8351746,487.4103699v128.4997253" />
	<path
   id="path4281-8"
   inkscape:connector-curvature="0"
   class="st0"
   d="M-186.9697418,488.1850891v128.4948425" />
	<g
   id="g302"
   transform="translate(0,-40)"><path
     id="path3070-9"
     inkscape:connector-curvature="0"
     sodipodi:nodetypes="csssscccsssscsccscccsscccssc"
     class="st0"
     d="m 117.99817,464.37309 c 20.44371,7.75705 69.08323,5.64014 94.46145,6.34576 25.37821,0.70566 79.18418,-5.048 99.39597,-13.39227 20.22656,-8.35412 66.50247,-33.38696 74.74313,-35.95288 11.25071,-3.52325 20.4289,-3.52325 39.47611,-9.86902 18.99789,-6.34579 12.6817,-16.21481 12.6817,-16.21481 l -14.80356,2.11691 -2.86203,-26.11349 c 0,0 18.35636,-0.67603 20.47824,-7.72251 2.12186,-7.05142 2.81265,-15.50918 -1.43103,-20.44369 -4.19433,-4.93451 -7.05636,0.70563 -9.12884,-6.3458 -2.12189,-7.04647 -1.43103,-14.0979 -13.42188,-13.39224 -11.99084,0.70563 -48.65433,0 -48.65433,0 0,0 -7.73236,53.57404 -48.61978,52.16275 -40.88739,-1.40634 -47.22827,-52.16275 -47.22827,-52.16275 H 26.359229 c 0,0 -2.822544,51.46207 -47.938824,52.16275 -45.111347,0.70563 -48.639526,-52.16275 -48.639526,-52.16275 h -32.425199 l -9.16438,19.03241 c -0.25413,0 -12.94966,0 -10.57369,8.45776 2.29505,8.17652 -2.11498,20.44373 8.45875,20.44373 10.57417,0 23.262796,-0.70566 23.262796,-0.70566 l 7.754593,21.85498 -20.443209,1.41129 c 0,0 16.918482,11.98099 58.508562,16.20987 41.593041,4.23382 77.541001,4.23382 95.167076,15.50918 17.621155,11.28031 67.671962,38.77051 67.671962,38.77051 z" /><path
     id="path3846-2"
     inkscape:connector-curvature="0"
     class="st0"
     d="m -111.80867,342.42146 h 45.818461" /><path
     id="path3850-6"
     inkscape:connector-curvature="0"
     class="st0"
     d="M 22.831084,342.42146 H 278.01959" /><path
     id="path3852-6"
     inkscape:connector-curvature="0"
     class="st0"
     d="m 363.31271,342.42146 h 74.70365" /><path
     id="path3884-4"
     inkscape:connector-curvature="0"
     sodipodi:nodetypes="csccc"
     class="st0"
     d="m 53.849463,417.85048 c 7.757057,9.16339 60.882057,40.22619 74.723377,43.70501 14.55683,3.65647 50.82552,3.52326 50.82552,3.52326 l -3.52325,-47.22827 z" /><path
     id="path3888-9"
     inkscape:connector-curvature="0"
     class="st0"
     d="M 73.587523,432.65404 V 418.5561" /><path
     id="path3892-5"
     inkscape:connector-curvature="0"
     sodipodi:nodetypes="ccccc"
     class="st0"
     d="m 192.08008,464.38298 -2.1169,-46.54239 h 102.22835 c -5.58094,10.23914 -23.0047,36.95956 -35.95285,43.70502 -7.05143,4.93454 -40.8973,2.13665 -64.1586,2.83737 z" /><path
     id="path3896-0"
     inkscape:connector-curvature="0"
     sodipodi:nodetypes="cscsc"
     class="st0"
     d="m 274.49142,460.84984 c 0,0 39.47614,-41.58814 42.29871,-42.99939 2.81763,-1.41126 57.07754,-0.70563 57.07754,-0.70563 0,0 -38.0451,23.26132 -50.73178,28.90146 -12.69156,5.64017 -44.41064,15.50918 -48.64447,14.80356 z" /><path
     id="path3900-4"
     inkscape:connector-curvature="0"
     sodipodi:nodetypes="csc"
     class="st0"
     d="m 44.508425,422.52839 c -6.947792,-15.28219 -9.030159,-35.42489 -9.030159,-46.53741 0,-11.11255 2.082367,-45.1459 11.112526,-52.09369" /><path
     id="path3900-6-8"
     inkscape:connector-curvature="0"
     sodipodi:nodetypes="cccc"
     class="st0"
     d="m 186.19813,471.14821 c -0.69084,-2.77814 -1.99353,-40.4137 -3.21237,-52.7648 -1.81096,-9.2374 -2.45738,-25.27457 -3.03474,-43.0882 0,-11.11252 3.46898,-39.58963 6.24708,-52.09369" /><path
     id="path3920-7"
     inkscape:connector-curvature="0"
     class="st0"
     d="m -74.96116,343.34422 c 0,0 7.63863,42.37268 52.789463,42.37268 45.145885,0 54.17606,-43.06354 54.17606,-43.06354" /><path
     id="path3920-5-1"
     inkscape:connector-curvature="0"
     class="st0"
     d="m 268.8562,342.65336 c 0,0 7.63861,42.36777 52.78943,42.36777 45.1459,0 54.1958,-43.06351 54.1958,-43.06351" /><path
     id="path3940-7"
     inkscape:connector-curvature="0"
     sodipodi:nodetypes="cc"
     class="st0"
     d="M -91.631433,370.43471 H -60.37473" /><path
     id="path3942-2"
     inkscape:connector-curvature="0"
     sodipodi:nodetypes="cssc"
     class="st0"
     d="m 258.43451,467.67427 c 9.03015,-6.24707 27.78625,-25.00318 45.84656,-51.39789 18.05542,-26.39474 4.16473,-29.17288 -9.03016,-36.81149 -13.19982,-7.63864 -24.31237,-20.83847 -33.34253,-55.5676" /><path
     id="path3944-7"
     inkscape:connector-curvature="0"
     sodipodi:nodetypes="cc"
     class="st0"
     d="M 423.06479,371.02189 H 359.15292" /><path
     id="path3946-2"
     inkscape:connector-curvature="0"
     class="st0"
     d="M 15.335551,371.13048 H 284.1384" /><path
     id="path3948-2"
     inkscape:connector-curvature="0"
     class="st0"
     d="M 273.02093,445.44923 V 418.35872" /><path
     id="rect3950-6"
     class="st0"
     d="m 151.0659,396.24714 h 17.47797 c 0.79936,0 1.44734,-1.60623 1.44734,-3.58764 v 0 c 0,-1.98139 -0.64798,-3.58765 -1.44734,-3.58765 H 151.0659 c -0.79935,0 -1.44734,1.60626 -1.44734,3.58765 v 0 c 0,1.98141 0.64799,3.58764 1.44734,3.58764 z" /><path
     id="rect3950-4-1"
     class="st0"
     d="m 278.1741,396.24714 h 17.47797 c 0.79934,0 1.44732,-1.60623 1.44732,-3.58764 v 0 c 0,-1.98139 -0.64798,-3.58765 -1.44732,-3.58765 H 278.1741 c -0.79935,0 -1.44736,1.60626 -1.44736,3.58765 v 0 c 0,1.98141 0.64801,3.58764 1.44736,3.58764 z" /><path
     id="rect4014-0"
     class="st0"
     d="m 2.821715,395.55632 h 7.656212 c 0.444269,0 0.804419,-1.2966 0.804419,-2.89606 v 0 c 0,-1.59946 -0.36015,-2.89609 -0.804419,-2.89609 H 2.821715 c -0.444269,0 -0.804417,1.29663 -0.804417,2.89609 v 0 c 0,1.59946 0.360148,2.89606 0.804417,2.89606 z" /></g>
	<path
   id="path4281-8-0"
   inkscape:connector-curvature="0"
   class="st0"
   d="M-181.7046204,487.9580994v128.4997253" />
	
	
	<path
   id="path4377"
   inkscape:connector-curvature="0"
   sodipodi:nodetypes="csccsc"
   class="st0"
   d="M-196.912796,448.2105713   c0,0-2.0872955-6.2520142-9.0301666-6.2520142c-6.9477997,0-6.9477997,4.1696777-6.9477997,4.1696777v209.0458374   c0,0,0.6957703,4.8851929,6.9477997,4.8851929c6.2471008,0,9.0301666-4.8851929,9.0301666-4.8851929" />
	<path
   id="path4381"
   inkscape:connector-curvature="0"
   sodipodi:nodetypes="cssc"
   class="st0"
   d="M-213.5865173,448.2105713   c0,0-17.364563-0.6957397-17.364563,10.4167786v183.3715515c0,11.1026611,18.0603333,12.484314,18.0603333,12.484314" />
	<path
   id="rect4467"
   class="st0"
   d="M-222.2654419,460.0188599h0.6944733c2.109848,0,3.8202057,1.3884277,3.8202057,3.1010742   v11.1624451c0,1.7126465-1.7103577,3.1010742-3.8202057,3.1010742h-0.6944733c-2.109848,0-3.8202057-1.3884277-3.8202057-3.1010742   v-11.1624451C-226.0856476,461.4072876-224.3752899,460.0188599-222.2654419,460.0188599z" />
	<path
   id="rect4467-6"
   class="st0"
   d="M-222.2654419,626.4403687h0.6944733c2.109848,0,3.8202057,1.3884277,3.8202057,3.1010742   v11.1624146c0,1.7127075-1.7103577,3.1010742-3.8202057,3.1010742h-0.6944733c-2.109848,0-3.8202057-1.3883667-3.8202057-3.1010742   v-11.1624146C-226.0856476,627.8287964-224.3752899,626.4403687-222.2654419,626.4403687z" />
	<rect
   id="rect4487"
   x="-150.3058014"
   y="458.6273499"
   class="st0"
   width="15.2807159"
   height="186.1496887" />
	<path
   id="path4499"
   inkscape:connector-curvature="0"
   sodipodi:nodetypes="cccccc"
   class="st0"
   d="M473.3376465,452.8884888   v36.1157227h33.3572998v-40.9811401l-12.4843445-6.9428711L473.3376465,452.8884888z" />
	<path
   id="path4501"
   inkscape:connector-curvature="0"
   sodipodi:nodetypes="cccccc"
   class="st0"
   d="M473.3376465,615.4215698   h33.3572998v38.9136353l-11.7934875,6.9083252l-21.5638123-9.0302124V615.4215698z" />
	<path
   id="path4503"
   inkscape:connector-curvature="0"
   class="st0"
   d="M473.3376465,482.0613403v140.3031006" />
	<path
   id="path4505"
   inkscape:connector-curvature="0"
   class="st0"
   d="M506.6949463,482.3525085v140.3031311" />
	<rect
   id="rect4534"
   x="481.0848083"
   y="514.890686"
   class="st0"
   width="6.9458499"
   height="72.9321442" />
	<path
   id="path4536"
   inkscape:connector-curvature="0"
   class="st0"
   d="M484.835022,514.1949463v-26.3947449" />
	<path
   id="path4536-0"
   inkscape:connector-curvature="0"
   class="st0"
   d="M484.835022,614.7998657v-26.3947754" />
	<path
   id="path4556"
   inkscape:connector-curvature="0"
   class="st0"
   d="M499.835968,489.1917419V615.604187" />
	<path
   id="path4377-2"
   inkscape:connector-curvature="0"
   sodipodi:nodetypes="csccsc"
   class="st0"
   d="M506.8430176,448.501709   c0,0,2.0724792-6.2520447,9.0302124-6.2520447c6.9083252,0,6.9083252,4.1696777,6.9083252,4.1696777v209.0508118   c0,0-0.6908569,4.8851929-6.9083252,4.8851929c-6.2668457,0-9.0302124-4.8851929-9.0302124-4.8851929" />
	<path
   id="path4381-0"
   inkscape:connector-curvature="0"
   sodipodi:nodetypes="cssc"
   class="st0"
   d="M523.47229,448.501709   c0,0,17.3695068-0.6957703,17.3695068,10.4216919v183.371521c0,11.1026611-18.0603027,12.484375-18.0603027,12.484375" />
	<path
   id="rect4467-5"
   class="st0"
   d="M533.1726685,460.3100281h-0.694458c-2.1098022,0-3.8201904,1.3883972-3.8201904,3.1010437   v11.1624451c0,1.712677,1.7103882,3.1010742,3.8201904,3.1010742h0.694458c2.1098633,0,3.8202515-1.3883972,3.8202515-3.1010742   v-11.1624451C536.9929199,461.6984253,535.2825317,460.3100281,533.1726685,460.3100281z" />
	<path
   id="rect4467-6-5"
   class="st0"
   d="M533.1726685,626.7364502h-0.694458c-2.1098022,0-3.8201904,1.3883667-3.8201904,3.1010742   v11.1624146c0,1.7126465,1.7103882,3.1010742,3.8201904,3.1010742h0.694458c2.1098633,0,3.8202515-1.3884277,3.8202515-3.1010742   v-11.1624146C536.9929199,628.1248169,535.2825317,626.7364502,533.1726685,626.7364502z" />
	<path
   id="path4585"
   inkscape:connector-curvature="0"
   class="st0"
   d="M472.7454529,452.380249l33.3079834,36.8114929" />
	<path
   id="path4587"
   inkscape:connector-curvature="0"
   sodipodi:nodetypes="cc"
   class="st0"
   d="M472.7454529,489.4828796   l33.3079834-36.1157227" />
	<path
   id="path4585-9"
   inkscape:connector-curvature="0"
   class="st0"
   d="M472.8441772,615.2932739l33.3573303,36.8213501" />
	<path
   id="path4587-0"
   inkscape:connector-curvature="0"
   sodipodi:nodetypes="cc"
   class="st0"
   d="M472.8441772,652.4107056   l33.3573303-36.1304932" />
	
		
	
		
	
		
	
		
	
		
	
		
	
		
	
		
	<path
   id="path3083"
   inkscape:connector-curvature="0"
   class="st0"
   d="M541.2365723,549.21521h20.1328735" />
	
		
	<g
   id="g318"><path
     id="path4143"
     inkscape:connector-curvature="0"
     sodipodi:nodetypes="cc"
     class="st0"
     d="M -110.38506,515.40092 45.200232,460.5291" /><path
     id="path4145"
     inkscape:connector-curvature="0"
     sodipodi:nodetypes="cc"
     class="st0"
     d="M -111.07984,586.25068 44.510382,643.19502" /><path
     id="path4165"
     inkscape:connector-curvature="0"
     sodipodi:nodetypes="ccssccccc"
     class="st0"
     d="m 42.421103,460.01591 69.458257,18.75611 c 0,0 -4.16473,24.28769 -4.16473,35.50879 v 72.84329 c 0,15.28222 4.16473,38.8988 4.16473,38.8988 l -69.458257,16.66882 c 0,0 -8.507099,-30.54467 -8.507099,-45.84167 0.187511,-16.67865 0.868477,-76.38632 1.041176,-91.68332 -0.695755,-15.2822 7.465923,-45.15082 7.465923,-45.15082 z" /><path
     id="path4175"
     inkscape:connector-curvature="0"
     sodipodi:nodetypes="csccsc"
     class="st0"
     d="m 111.87936,478.77202 c 0,0 46.53742,2.77813 75.01453,2.77813 52.78944,0 99.33676,-2.77813 99.33676,-2.77813 m -0.69086,146.55514 c 0,0 -38.19317,-2.77814 -98.64593,-2.77814 -34.03334,0 -75.01453,3.47388 -75.01453,3.47388" /><path
     id="rect4177"
     class="st0"
     d="m 150.19095,507.59947 h 22.00793 c 8.50009,0 15.39076,7.60779 15.39076,16.99249 v 55.616 c 0,9.3847 -6.89067,16.99249 -15.39076,16.99249 h -22.00793 c -8.50008,0 -15.39075,-7.60779 -15.39075,-16.99249 v -55.616 c 0,-9.3847 6.89067,-16.99249 15.39075,-16.99249 z" /><path
     id="path4135-9"
     inkscape:connector-curvature="0"
     sodipodi:nodetypes="cccccccc"
     class="st0"
     d="M 44.577502,460.01594 H -100.59104 l -6.94583,50.7071 -3.47291,5.55624 v 70.15402 l 3.47291,6.94287 7.640117,50.01624 H 42.488719" /><path
     id="path4203"
     inkscape:connector-curvature="0"
     sodipodi:nodetypes="csscccssccc"
     class="st0"
     d="m 284.84894,478.77202 c 0,0 -6.26682,23.6166 -6.26682,36.11572 v 72.23636 c 0,12.50409 6.26682,38.20306 6.26682,38.20306 l 101.40432,18.75611 h 53.49018 c 0,0 6.90832,-40.28541 6.90832,-56.95917 v -72.92719 c 0,-18.7561 -6.90832,-54.18097 -6.90832,-54.18097 h -53.49018 z" /><path
     id="path4205"
     inkscape:connector-curvature="0"
     sodipodi:nodetypes="csscsccsc"
     class="st0"
     d="m 290.37564,487.80217 c 0,0 -4.14499,20.1427 -4.14499,27.78134 v 71.54059 c 0,9.72595 3.45413,28.48205 3.45413,28.48205 0,0 46.53253,13.19489 61.13867,13.19489 h 20.82364 v -154.1987 h -23.587 c -12.53369,0 -57.68451,13.19983 -57.68451,13.19983 z" /><path
     id="path4207"
     inkscape:connector-curvature="0"
     class="st0"
     d="m 386.25326,460.01591 c 0,0 15.24765,20.14762 15.24765,54.87183 v 72.23636 c 0,31.95099 -15.24765,57.6549 -15.24765,57.6549" /><path
     id="path4209"
     inkscape:connector-curvature="0"
     class="st0"
     d="m 34.08673,514.88774 15.977966,-15.97302 v -20.1427 55.56759" /><path
     id="path4209-7"
     inkscape:connector-curvature="0"
     class="st0"
     d="m 33.741305,574.62495 15.97303,-15.97796 v -20.1427 55.56762" /><path
     id="path4209-76"
     inkscape:connector-curvature="0"
     class="st0"
     d="m 369.92001,536.42195 -15.97796,-15.97302 v -20.1427 55.56268" /><path
     id="path4243"
     inkscape:connector-curvature="0"
     sodipodi:nodetypes="cssc"
     class="st0"
     d="m 42.421103,460.01591 c 0,0 -20.838451,38.89878 -20.838451,54.87183 v 72.23636 c 0,20.1427 20.838451,56.26336 20.838451,56.26336" /><path
     id="path3855"
     inkscape:connector-curvature="0"
     class="st0"
     d="M264.6865234,557.2584229l-19.1015167-19.1015015" /></g>
	
	
</g>
</svg>
